<?xml version="1.0" encoding="UTF-8"?>
<svg version="1.1" xmlns="http://www.w3.org/2000/svg" width="512" height="512">
<path d="M0 0 C5.46602344 4.20811407 8.21112545 10.34391166 11.4375 16.3125 C12.68565802 18.58174329 13.93570608 20.84994787 15.1875 23.1171875 C15.82171875 24.26799805 16.4559375 25.41880859 17.109375 26.60449219 C19.97915022 31.75852546 22.95090197 36.850526 25.9375 41.9375 C27.10433734 43.92828539 28.27100245 45.91917174 29.4375 47.91015625 C30.02144531 48.9067627 30.60539062 49.90336914 31.20703125 50.93017578 C36.19948703 59.47798882 41.12415419 68.06532855 46.06494141 76.64306641 C48.07604754 80.13192703 50.09030995 83.61894828 52.10546875 87.10546875 C52.78525786 88.28205212 53.46502695 89.45864705 54.14477539 90.63525391 C55.42598166 92.85268378 56.70768667 95.06982559 57.98999023 97.28662109 C59.13805583 99.27452974 60.28324443 101.26410372 61.42504883 103.25561523 C62.44814554 105.03838227 63.47882439 106.81682714 64.51831055 108.59008789 C65.19953979 109.77139282 65.19953979 109.77139282 65.89453125 110.9765625 C66.48778198 111.99290771 66.48778198 111.99290771 67.09301758 113.02978516 C68.73319012 116.59269025 68.59024943 119.13058708 68 123 C55.43461545 135.56538455 35.6234675 137.72002339 19 144 C18.67 178.32 18.34 212.64 18 248 C24.6 248 31.2 248 38 248 C42.35395889 252.35395889 42.50838957 252.65255043 42.53125 258.34765625 C42.53640625 259.59353516 42.5415625 260.83941406 42.546875 262.12304688 C42.53140625 263.42306641 42.5159375 264.72308594 42.5 266.0625 C42.51546875 267.33544922 42.5309375 268.60839844 42.546875 269.91992188 C42.49596671 282.30972815 39.64852839 291.94045243 31 301 C18.65303779 312.78679757 5.28920934 312.58402737 -10.8203125 312.51757812 C-13.03066467 312.52300442 -15.24101322 312.53012991 -17.45135498 312.53881836 C-23.4306812 312.55699413 -29.40973015 312.55000781 -35.38906097 312.53730202 C-41.65928369 312.5271446 -47.92948334 312.5365753 -54.19970703 312.54284668 C-65.40108902 312.55058007 -76.60236966 312.53818299 -87.80372739 312.51780933 C-97.94147941 312.49994048 -108.07904816 312.50304527 -118.21679688 312.52148438 C-130.01487175 312.54293361 -141.81285746 312.55083558 -153.61095238 312.53903532 C-159.84698254 312.53281303 -166.08288672 312.53193003 -172.31890869 312.54518127 C-178.18283851 312.55677242 -184.0464237 312.54865413 -189.91031647 312.52560425 C-192.05685098 312.52033463 -194.20341472 312.52180084 -196.34993744 312.53065491 C-211.44473542 312.58715775 -223.53025602 311.94937752 -235 301 C-244.79728508 290.73710137 -246.66814622 279.89953278 -246.5 266.0625 C-246.51546875 264.76248047 -246.5309375 263.46246094 -246.546875 262.12304688 C-246.54171875 260.87716797 -246.5365625 259.63128906 -246.53125 258.34765625 C-246.52673828 257.22367432 -246.52222656 256.09969238 -246.51757812 254.94165039 C-245.8478964 251.13552062 -245.1707168 250.22676931 -242 248 C-238.57152863 247.50420358 -235.20483463 247.6241937 -231.75 247.75 C-230.81414062 247.76804687 -229.87828125 247.78609375 -228.9140625 247.8046875 C-226.60832985 247.85174327 -224.30469055 247.91746287 -222 248 C-222.00368717 247.11724522 -222.00737434 246.23449043 -222.01117325 245.3249855 C-222.09945574 223.85976202 -222.16567622 202.39456976 -222.20724869 180.92920303 C-222.22788646 170.54876441 -222.25603026 160.16844686 -222.30175781 149.78808594 C-222.34158839 140.74206391 -222.36742397 131.69612955 -222.37635398 122.65002227 C-222.38157514 117.85877746 -222.39387193 113.06778349 -222.42292023 108.27661896 C-222.45002965 103.76881201 -222.45845409 99.26135972 -222.45243073 94.753479 C-222.45353297 93.09743066 -222.46151357 91.44137071 -222.4768219 89.78539276 C-222.49668068 87.5267581 -222.49195539 85.26946803 -222.48101807 83.01080322 C-222.48470524 81.74610325 -222.48839241 80.48140327 -222.49219131 79.17837906 C-222 76 -222 76 -220.29001427 73.59047604 C-217.55874162 71.69353428 -216.18028984 71.51215137 -212.87875366 71.5415802 C-211.8443515 71.54067383 -210.80994934 71.53976746 -209.74420166 71.53883362 C-208.05010162 71.56758827 -208.05010162 71.56758827 -206.32177734 71.59692383 C-204.53083145 71.60310226 -204.53083145 71.60310226 -202.70370483 71.60940552 C-199.43038199 71.6229875 -196.15767513 71.65362287 -192.88453245 71.68887925 C-189.45125502 71.71930051 -186.01801733 71.72002746 -182.58462524 71.72160339 C-170.89382433 71.73214109 -159.20355288 71.78542461 -147.51318359 71.88647461 C-141.05473478 71.94198807 -134.59697467 71.9649048 -128.13829005 71.95314807 C-124.72452702 71.94849981 -121.31271914 71.96089776 -117.89933395 72.01450539 C-114.0832853 72.06749101 -110.27089499 72.06475871 -106.45458984 72.05004883 C-104.77870789 72.09398521 -104.77870789 72.09398521 -103.06896973 72.1388092 C-95.32059147 72.0282167 -91.60572084 69.84500585 -86.21961403 64.31025219 C-85.4871414 63.54786897 -84.75466877 62.78548574 -84 62 C-82.41660298 60.68295507 -80.81489719 59.38727249 -79.1875 58.125 C-75.21838175 54.99706066 -71.34545783 51.77723251 -67.5 48.5 C-62.92596253 44.60480198 -58.28839086 40.81225792 -53.578125 37.08203125 C-50.59032727 34.66915824 -47.6694698 32.18200298 -44.75 29.6875 C-39.71392352 25.38859157 -34.56069924 21.27429381 -29.328125 17.21801758 C-24.22612687 13.23671842 -19.31474592 9.05246332 -14.44165039 4.79516602 C-9.90169782 0.84246441 -6.20746308 -1.49873883 0 0 Z M-182 88 C-182.020625 96.9925 -182.04125 105.985 -182.0625 115.25 C-182.071604 118.0643457 -182.08070801 120.87869141 -182.09008789 123.77832031 C-182.09301244 126.04492139 -182.09555972 128.311523 -182.09765625 130.578125 C-182.10277222 131.72587402 -182.10788818 132.87362305 -182.11315918 134.05615234 C-182.11394298 141.42076247 -181.73282661 148.67183777 -181 156 C-177.18442326 154.37516586 -174.00192409 152.9278025 -171 150 C-170.36005895 146.63024048 -170.56395792 143.73087299 -170.82421875 140.31640625 C-171.22592425 132.73756249 -168.34772802 126.76835467 -163.79296875 120.88671875 C-157.85591259 114.63922828 -150.77226863 110.82507324 -143.3125 106.625 C-128.25977663 98.54655318 -128.25977663 98.54655318 -115 88 C-137.11 88 -159.22 88 -182 88 Z M-5.36767578 151.92773438 C-7.04919235 152.55838806 -7.04919235 152.55838806 -8.76467896 153.20178223 C-10.58659256 153.89080627 -10.58659256 153.89080627 -12.4453125 154.59375 C-13.69788023 155.0648615 -14.95055706 155.53568302 -16.20333862 156.00622559 C-19.50225697 157.2461852 -22.79967543 158.49008675 -26.09680176 159.73480225 C-29.46077658 161.00396121 -32.82614841 162.26940415 -36.19140625 163.53515625 C-42.79564643 166.01979289 -49.39830996 168.50859468 -56 171 C-54.72419527 174.94689379 -53.3645324 178.39621341 -51.25 181.96875 C-50.7240625 182.86980469 -50.198125 183.77085937 -49.65625 184.69921875 C-49.1096875 185.62347656 -48.563125 186.54773438 -48 187.5 C-42.8721692 196.17135539 -39.20037757 202.73817881 -40 213 C-41.32 216.63 -42.64 220.26 -44 224 C-28.82 224 -13.64 224 2 224 C2 199.58 2 175.16 2 150 C-0.74944461 150 -2.79117521 150.95721398 -5.36767578 151.92773438 Z M-153.75 195.9375 C-154.73484375 196.50339844 -155.7196875 197.06929687 -156.734375 197.65234375 C-157.48203125 198.09707031 -158.2296875 198.54179687 -159 199 C-157.35559213 200.69423841 -155.69072166 202.35274162 -154 204 C-153.55011719 204.45761719 -153.10023438 204.91523438 -152.63671875 205.38671875 C-133.81026856 223.14293146 -107.37939034 224.4496199 -83 224 C-88.40546764 213.85049326 -94.21164918 203.93414507 -100 194 C-102.46181619 194.97165489 -104.90630595 195.95827072 -107.32421875 197.03515625 C-116.58478275 201.06082291 -125.27158748 202.20156024 -135 199 C-137.4200967 197.81844572 -139.70570686 196.5427616 -141.9921875 195.12109375 C-146.90791236 192.37632131 -148.87740749 193.09515437 -153.75 195.9375 Z " fill="#433C2E" transform="translate(262,184)"/>
<path d="M0 0 C1.06077255 -0.00671722 2.1215451 -0.01343445 3.21446228 -0.02035522 C6.72008961 -0.03934785 10.2255256 -0.04326016 13.73120117 -0.04541016 C16.17111795 -0.05183742 18.61103395 -0.05856573 21.0509491 -0.06558228 C26.1661457 -0.07755838 31.28127474 -0.08126277 36.39648438 -0.08007812 C42.94350949 -0.07987497 49.49010035 -0.10717221 56.03702259 -0.14162254 C61.07714315 -0.16388623 66.11715914 -0.16791581 71.15732384 -0.16685867 C73.5705992 -0.16921561 75.9838774 -0.17804428 78.39710426 -0.19352341 C81.77676205 -0.21317076 85.1554826 -0.2073493 88.53515625 -0.1953125 C89.52712006 -0.20655151 90.51908386 -0.21779053 91.54110718 -0.22937012 C98.82624198 -0.16360776 104.17378339 1.40933061 109.70385742 6.25537109 C110.24268555 6.90634766 110.78151367 7.55732422 111.33666992 8.22802734 C111.8909668 8.87642578 112.44526367 9.52482422 113.01635742 10.19287109 C116.92413985 15.8644364 116.75825447 21.15906925 116.75219727 27.82885742 C116.75891449 28.88962997 116.76563171 29.95040253 116.77255249 31.0433197 C116.79154512 34.54894703 116.79545743 38.05438302 116.79760742 41.56005859 C116.80403469 43.99997537 116.810763 46.43989137 116.81777954 48.87980652 C116.82975564 53.99500312 116.83346004 59.11013217 116.83227539 64.2253418 C116.83207224 70.77236692 116.85936947 77.31895777 116.89381981 83.86588001 C116.9160835 88.90600057 116.92011308 93.94601656 116.91905594 98.98618126 C116.92141287 101.39945662 116.93024155 103.81273482 116.94572067 106.22596169 C116.96536802 109.60561948 116.95954656 112.98434002 116.94750977 116.36401367 C116.95874878 117.35597748 116.96998779 118.34794128 116.98156738 119.3699646 C116.91580503 126.6550994 115.34286665 132.00264081 110.49682617 137.53271484 C109.84584961 138.07154297 109.19487305 138.61037109 108.52416992 139.16552734 C107.87577148 139.71982422 107.22737305 140.27412109 106.55932617 140.84521484 C100.88776087 144.75299727 95.59312802 144.58711189 88.92333984 144.58105469 C87.86256729 144.58777191 86.80179474 144.59448914 85.70887756 144.60140991 C82.20325023 144.62040254 78.69781425 144.62431485 75.19213867 144.62646484 C72.7522219 144.63289211 70.3123059 144.63962042 67.87239075 144.64663696 C62.75719415 144.65861307 57.6420651 144.66231746 52.52685547 144.66113281 C45.97983035 144.66092966 39.43323949 144.6882269 32.88631725 144.72267723 C27.84619669 144.74494092 22.8061807 144.7489705 17.76601601 144.74791336 C15.35274065 144.7502703 12.93946245 144.75909897 10.52623558 144.77457809 C7.14657779 144.79422544 3.76785724 144.78840398 0.38818359 144.77636719 C-1.09976212 144.79322571 -1.09976212 144.79322571 -2.61776733 144.8104248 C-9.90290213 144.74466245 -15.25044355 143.17172408 -20.78051758 138.32568359 C-21.58875977 137.34921875 -21.58875977 137.34921875 -22.41333008 136.35302734 C-22.96762695 135.70462891 -23.52192383 135.05623047 -24.09301758 134.38818359 C-28.0008 128.71661829 -27.83491462 123.42198544 -27.82885742 116.75219727 C-27.83557465 115.69142471 -27.84229187 114.63065216 -27.84921265 113.53773499 C-27.86820527 110.03210766 -27.87211758 106.52667167 -27.87426758 103.02099609 C-27.88069485 100.58107932 -27.88742315 98.14116332 -27.8944397 95.70124817 C-27.9064158 90.58605157 -27.91012019 85.47092252 -27.90893555 80.35571289 C-27.9087324 73.80868777 -27.93602963 67.26209691 -27.97047997 60.71517467 C-27.99274365 55.67505412 -27.99677323 50.63503813 -27.99571609 45.59487343 C-27.99807303 43.18159807 -28.00690171 40.76831987 -28.02238083 38.355093 C-28.04202818 34.97543521 -28.03620672 31.59671466 -28.02416992 28.21704102 C-28.03540894 27.22507721 -28.04664795 26.2331134 -28.05822754 25.21109009 C-27.99246518 17.92595529 -26.41952681 12.57841387 -21.57348633 7.04833984 C-20.92250977 6.50951172 -20.2715332 5.97068359 -19.60083008 5.41552734 C-18.95243164 4.86123047 -18.3040332 4.30693359 -17.63598633 3.73583984 C-11.96442103 -0.17194258 -6.66978817 -0.0060572 0 0 Z " fill="#FECC52" transform="translate(379.538330078125,263.70947265625)"/>
<path d="M0 0 C14.35546434 11.70990834 26.06794902 27.89121936 28.30664062 46.72021484 C29.76601625 68.44058871 26.97909464 88.67535502 12.32739258 105.62890625 C-0.87957734 120.09489289 -17.32732525 130.10586173 -37.24804688 131.03271484 C-57.93878131 131.62467515 -76.50369154 127.612305 -92.13085938 113.34521484 C-106.8738166 99.20544466 -115.50400135 82.70692505 -116.09399414 62.08496094 C-116.33065412 41.68831843 -111.22582647 23.74080029 -96.89331055 8.796875 C-71.34187485 -16.78517169 -29.7766123 -22.50418132 0 0 Z " fill="#FBC338" transform="translate(259.693359375,21.27978515625)"/>
<path d="M0 0 C1.06077255 -0.00671722 2.1215451 -0.01343445 3.21446228 -0.02035522 C6.72008961 -0.03934785 10.2255256 -0.04326016 13.73120117 -0.04541016 C16.17111795 -0.05183742 18.61103395 -0.05856573 21.0509491 -0.06558228 C26.1661457 -0.07755838 31.28127474 -0.08126277 36.39648438 -0.08007812 C42.94350949 -0.07987497 49.49010035 -0.10717221 56.03702259 -0.14162254 C61.07714315 -0.16388623 66.11715914 -0.16791581 71.15732384 -0.16685867 C73.5705992 -0.16921561 75.9838774 -0.17804428 78.39710426 -0.19352341 C81.77676205 -0.21317076 85.1554826 -0.2073493 88.53515625 -0.1953125 C89.52712006 -0.20655151 90.51908386 -0.21779053 91.54110718 -0.22937012 C98.82624198 -0.16360776 104.17378339 1.40933061 109.70385742 6.25537109 C110.24268555 6.90634766 110.78151367 7.55732422 111.33666992 8.22802734 C111.8909668 8.87642578 112.44526367 9.52482422 113.01635742 10.19287109 C116.92413985 15.8644364 116.75825447 21.15906925 116.75219727 27.82885742 C116.75891449 28.88962997 116.76563171 29.95040253 116.77255249 31.0433197 C116.79154512 34.54894703 116.79545743 38.05438302 116.79760742 41.56005859 C116.80403469 43.99997537 116.810763 46.43989137 116.81777954 48.87980652 C116.82975564 53.99500312 116.83346004 59.11013217 116.83227539 64.2253418 C116.83207224 70.77236692 116.85936947 77.31895777 116.89381981 83.86588001 C116.9160835 88.90600057 116.92011308 93.94601656 116.91905594 98.98618126 C116.92141287 101.39945662 116.93024155 103.81273482 116.94572067 106.22596169 C116.96536802 109.60561948 116.95954656 112.98434002 116.94750977 116.36401367 C116.95874878 117.35597748 116.96998779 118.34794128 116.98156738 119.3699646 C116.91580503 126.6550994 115.34286665 132.00264081 110.49682617 137.53271484 C109.84584961 138.07154297 109.19487305 138.61037109 108.52416992 139.16552734 C107.87577148 139.71982422 107.22737305 140.27412109 106.55932617 140.84521484 C100.88776087 144.75299727 95.59312802 144.58711189 88.92333984 144.58105469 C87.86256729 144.58777191 86.80179474 144.59448914 85.70887756 144.60140991 C82.20325023 144.62040254 78.69781425 144.62431485 75.19213867 144.62646484 C72.7522219 144.63289211 70.3123059 144.63962042 67.87239075 144.64663696 C62.75719415 144.65861307 57.6420651 144.66231746 52.52685547 144.66113281 C45.97983035 144.66092966 39.43323949 144.6882269 32.88631725 144.72267723 C27.84619669 144.74494092 22.8061807 144.7489705 17.76601601 144.74791336 C15.35274065 144.7502703 12.93946245 144.75909897 10.52623558 144.77457809 C7.14657779 144.79422544 3.76785724 144.78840398 0.38818359 144.77636719 C-1.09976212 144.79322571 -1.09976212 144.79322571 -2.61776733 144.8104248 C-9.90290213 144.74466245 -15.25044355 143.17172408 -20.78051758 138.32568359 C-21.58875977 137.34921875 -21.58875977 137.34921875 -22.41333008 136.35302734 C-22.96762695 135.70462891 -23.52192383 135.05623047 -24.09301758 134.38818359 C-28.0008 128.71661829 -27.83491462 123.42198544 -27.82885742 116.75219727 C-27.83557465 115.69142471 -27.84229187 114.63065216 -27.84921265 113.53773499 C-27.86820527 110.03210766 -27.87211758 106.52667167 -27.87426758 103.02099609 C-27.88069485 100.58107932 -27.88742315 98.14116332 -27.8944397 95.70124817 C-27.9064158 90.58605157 -27.91012019 85.47092252 -27.90893555 80.35571289 C-27.9087324 73.80868777 -27.93602963 67.26209691 -27.97047997 60.71517467 C-27.99274365 55.67505412 -27.99677323 50.63503813 -27.99571609 45.59487343 C-27.99807303 43.18159807 -28.00690171 40.76831987 -28.02238083 38.355093 C-28.04202818 34.97543521 -28.03620672 31.59671466 -28.02416992 28.21704102 C-28.03540894 27.22507721 -28.04664795 26.2331134 -28.05822754 25.21109009 C-27.99246518 17.92595529 -26.41952681 12.57841387 -21.57348633 7.04833984 C-20.92250977 6.50951172 -20.2715332 5.97068359 -19.60083008 5.41552734 C-18.95243164 4.86123047 -18.3040332 4.30693359 -17.63598633 3.73583984 C-11.96442103 -0.17194258 -6.66978817 -0.0060572 0 0 Z M4.46166992 16.29052734 C4.44607964 20.68187822 4.43481089 25.07321391 4.42733765 29.46458435 C4.42421812 30.95471986 4.41997104 32.44485349 4.41452026 33.9349823 C4.3296288 57.76002167 7.11615642 76.73460569 24.39916992 94.47802734 C26.14604365 96.48544006 26.14604365 96.48544006 28.46166992 97.29052734 C28.46166992 91.68052734 28.46166992 86.07052734 28.46166992 80.29052734 C25.43432617 80.12776693 22.40698242 79.96500651 19.37963867 79.80224609 C16.46166992 79.29052734 16.46166992 79.29052734 14.59838867 77.99755859 C13.22722473 75.93845673 13.05871282 74.75075211 13.08666992 72.29052734 C13.07893555 71.60990234 13.07120117 70.92927734 13.06323242 70.22802734 C13.59903076 67.62257661 14.27372554 66.80878645 16.46166992 65.29052734 C19.37963867 64.77880859 19.37963867 64.77880859 22.64916992 64.60302734 C24.27918945 64.50441406 24.27918945 64.50441406 25.94213867 64.40380859 C26.77358398 64.36642578 27.6050293 64.32904297 28.46166992 64.29052734 C28.48745117 63.30052734 28.51323242 62.31052734 28.53979492 61.29052734 C28.85321393 52.98492353 29.14823104 45.84986298 35.10620117 39.55224609 C42.49249003 32.80964254 49.42066261 32.95275013 59.08666992 32.97802734 C60.32674805 32.96191406 61.56682617 32.94580078 62.84448242 32.92919922 C64.03041992 32.92855469 65.21635742 32.92791016 66.43823242 32.92724609 C68.06365967 32.92277466 68.06365967 32.92277466 69.72192383 32.91821289 C72.46166992 33.29052734 72.46166992 33.29052734 74.31323242 34.69213867 C75.74411585 36.68363396 75.86435679 37.85408303 75.83666992 40.29052734 C75.84827148 41.31146484 75.84827148 41.31146484 75.86010742 42.35302734 C75.33762277 44.89373701 74.47430691 45.67884867 72.46166992 47.29052734 C70.38037109 47.67529297 70.38037109 47.67529297 68.00463867 47.69677734 C66.70623047 47.72964844 66.70623047 47.72964844 65.3815918 47.76318359 C64.47989258 47.77220703 63.57819336 47.78123047 62.64916992 47.79052734 C54.1472318 47.84063226 54.1472318 47.84063226 46.46166992 51.29052734 C43.87494882 55.40576546 44.30210521 59.58336836 44.46166992 64.29052734 C45.70883789 64.34660156 45.70883789 64.34660156 46.98120117 64.40380859 C48.06788086 64.46955078 49.15456055 64.53529297 50.27416992 64.60302734 C51.35311523 64.66103516 52.43206055 64.71904297 53.54370117 64.77880859 C56.46166992 65.29052734 56.46166992 65.29052734 58.32495117 66.58349609 C59.69611511 68.64259795 59.86462702 69.83030258 59.83666992 72.29052734 C59.84827148 73.31146484 59.84827148 73.31146484 59.86010742 74.35302734 C59.46166992 76.29052734 59.46166992 76.29052734 56.46166992 79.29052734 C50.52166992 79.78552734 50.52166992 79.78552734 44.46166992 80.29052734 C44.46166992 89.20052734 44.46166992 98.11052734 44.46166992 107.29052734 C58.11477723 111.79314784 70.33477281 112.43421291 84.58666992 112.35302734 C86.1309393 112.34800085 87.67521027 112.34343998 89.21948242 112.33935547 C92.9669118 112.32844431 96.71428041 112.31124348 100.46166992 112.29052734 C100.53121591 100.92041605 100.58450465 89.55035546 100.61710644 78.18007469 C100.63275458 72.90024674 100.65397747 67.62056444 100.68798828 62.34082031 C100.72061185 57.24446813 100.73852935 52.14825596 100.74630165 47.0518074 C100.75183975 45.10856549 100.76265434 43.16533113 100.77886009 41.2221489 C100.8006741 38.49786642 100.80363518 35.77416062 100.80224609 33.04980469 C100.81303192 32.24851135 100.82381775 31.44721802 100.83493042 30.62164307 C100.80848583 25.82073954 100.28890095 22.35889423 97.46166992 18.29052734 C93.28401574 15.64282415 88.61122979 16.02063717 83.81591797 16.06347656 C82.95687363 16.06318451 82.09782928 16.06289246 81.2127533 16.06259155 C78.38286114 16.06398114 75.55323465 16.07952489 72.72338867 16.09521484 C70.75755456 16.09894629 68.79171859 16.10179264 66.82588196 16.10379028 C61.6588322 16.11141635 56.49189537 16.13105607 51.32489014 16.15319824 C46.0495354 16.17367876 40.77416236 16.18279672 35.4987793 16.19287109 C25.15302663 16.21430289 14.80735768 16.24842649 4.46166992 16.29052734 Z " fill="#433C2E" transform="translate(379.538330078125,15.70947265625)"/>
<path d="M0 0 C0.87479004 -0.0112793 1.74958008 -0.02255859 2.65087891 -0.03417969 C4.07859619 -0.0220343 4.07859619 -0.0220343 5.53515625 -0.00964355 C6.54368652 -0.01665283 7.5522168 -0.02366211 8.59130859 -0.03088379 C11.92703739 -0.04849761 15.26191873 -0.03682853 18.59765625 -0.02331543 C20.91406416 -0.02600936 23.23047097 -0.02989094 25.546875 -0.03491211 C30.40245323 -0.04081177 35.25773721 -0.03222881 40.11328125 -0.0135498 C46.34130271 0.00923961 52.5686347 -0.00388091 58.79663086 -0.02783966 C63.5801311 -0.04228475 68.36346752 -0.03769748 73.14697266 -0.02732849 C75.44352296 -0.02465766 77.74008808 -0.02794343 80.03662109 -0.0372467 C83.24486765 -0.0473907 86.45199331 -0.03194026 89.66015625 -0.00964355 C91.08787354 -0.02178894 91.08787354 -0.02178894 92.54443359 -0.03417969 C93.85661865 -0.01726074 93.85661865 -0.01726074 95.1953125 0 C95.95336182 0.0015081 96.71141113 0.0030162 97.49243164 0.00457001 C100.5420827 0.73374934 101.72103262 2.03013215 103.59765625 4.50793457 C104.10102081 7.11291504 104.10102081 7.11291504 104.10559082 10.12512207 C104.11687012 11.26916504 104.12814941 12.41320801 104.13977051 13.59191895 C104.13167358 14.8429541 104.12357666 16.09398926 104.11523438 17.38293457 C104.12065593 18.71692672 104.12777879 20.05091287 104.13647461 21.3848877 C104.15470738 25.00478805 104.14764099 28.62423231 104.13495827 32.24414062 C104.1248302 36.03260527 104.1342234 39.82103089 104.14050293 43.60949707 C104.14777993 49.97154755 104.13819038 56.33341229 104.11914062 62.69543457 C104.09737161 70.05053594 104.10442296 77.4051938 104.12644625 84.76028442 C104.14459887 91.07548824 104.1471593 97.39055855 104.13669157 103.70578003 C104.13045581 107.4774706 104.12962307 111.24895271 104.14283752 115.02062988 C104.1543936 118.5666581 104.14637569 122.1121146 104.1232605 125.65808105 C104.11544939 127.58002944 104.12733147 129.50202619 104.13977051 131.4239502 C104.12285156 133.14001465 104.12285156 133.14001465 104.10559082 134.89074707 C104.10408272 135.88477539 104.10257462 136.87880371 104.10102081 137.9029541 C103.44808017 141.28201124 102.32932149 142.46147328 99.59765625 144.50793457 C97.49243164 145.01129913 97.49243164 145.01129913 95.1953125 145.01586914 C93.88312744 145.03278809 93.88312744 145.03278809 92.54443359 145.05004883 C91.59262207 145.0419519 90.64081055 145.03385498 89.66015625 145.0255127 C88.65162598 145.03252197 87.6430957 145.03953125 86.60400391 145.04675293 C83.26827511 145.06436675 79.93339377 145.05269767 76.59765625 145.03918457 C74.28124834 145.0418785 71.96484153 145.04576008 69.6484375 145.05078125 C64.79285927 145.05668091 59.93757529 145.04809795 55.08203125 145.02941895 C48.85400979 145.00662953 42.6266778 145.01975005 36.39868164 145.0437088 C31.6151814 145.0581539 26.83184498 145.05356662 22.04833984 145.04319763 C19.75178954 145.0405268 17.45522442 145.04381257 15.15869141 145.05311584 C11.95044485 145.06325984 8.74331919 145.0478094 5.53515625 145.0255127 C4.58334473 145.03360962 3.6315332 145.04170654 2.65087891 145.05004883 C1.77608887 145.03876953 0.90129883 145.02749023 0 145.01586914 C-0.75804932 145.01436104 -1.51609863 145.01285294 -2.29711914 145.01129913 C-5.3467702 144.2821198 -6.52572012 142.98573699 -8.40234375 140.50793457 C-8.90570831 137.9029541 -8.90570831 137.9029541 -8.91027832 134.89074707 C-8.92155762 133.7467041 -8.93283691 132.60266113 -8.94445801 131.4239502 C-8.93636108 130.17291504 -8.92826416 128.92187988 -8.91992188 127.63293457 C-8.92534343 126.29894242 -8.93246629 124.96495627 -8.94116211 123.63098145 C-8.95939488 120.01108109 -8.95232849 116.39163683 -8.93964577 112.77172852 C-8.9295177 108.98326387 -8.9389109 105.19483825 -8.94519043 101.40637207 C-8.95246743 95.04432159 -8.94287788 88.68245685 -8.92382812 82.32043457 C-8.90205911 74.9653332 -8.90911046 67.61067534 -8.93113375 60.25558472 C-8.94928637 53.9403809 -8.9518468 47.62531059 -8.94137907 41.31008911 C-8.93514331 37.53839854 -8.93431057 33.76691643 -8.94752502 29.99523926 C-8.9590811 26.44921104 -8.95106319 22.90375454 -8.927948 19.35778809 C-8.92013689 17.4358397 -8.93201897 15.51384295 -8.94445801 13.59191895 C-8.93317871 12.44787598 -8.92189941 11.30383301 -8.91027832 10.12512207 C-8.90877022 9.13109375 -8.90726212 8.13706543 -8.90570831 7.11291504 C-7.94143447 2.122666 -4.93523344 0.00981841 0 0 Z M23.59765625 16.50793457 C23.55640625 24.38668457 23.51515625 32.26543457 23.47265625 40.38293457 C23.45444824 42.87066406 23.43624023 45.35839355 23.41748047 47.92150879 C23.41164128 49.88521102 23.40654437 51.84891565 23.40234375 53.81262207 C23.39211182 54.83879639 23.38187988 55.8649707 23.37133789 56.92224121 C23.37109619 57.89653076 23.37085449 58.87082031 23.37060547 59.87463379 C23.36616425 60.72290741 23.36172302 61.57118103 23.35714722 62.44515991 C23.40750264 64.73142003 23.40750264 64.73142003 25.59765625 66.50793457 C26.58765625 66.01293457 26.58765625 66.01293457 27.59765625 65.50793457 C30.55210516 65.3843253 33.48203574 65.31949632 36.4375 65.30480957 C37.31539688 65.2991095 38.19329376 65.29340942 39.09779358 65.28753662 C40.9563781 65.27808306 42.81497941 65.27155123 44.67358398 65.2677002 C47.52031564 65.25798522 50.36632823 65.22696178 53.21289062 65.19543457 C55.01692279 65.18890551 56.82096012 65.18365466 58.625 65.17980957 C59.47819321 65.16746277 60.33138641 65.15511597 61.21043396 65.14239502 C67.17566345 65.16493772 67.17566345 65.16493772 69.32154846 66.90911865 C70.90969205 68.89887945 71.00131462 69.98599782 70.97265625 72.50793457 C70.98425781 73.52887207 70.98425781 73.52887207 70.99609375 74.57043457 C70.47624324 77.09833507 69.58379876 77.88998709 67.59765625 79.50793457 C65.71833801 79.90666199 65.71833801 79.90666199 63.58520508 79.94030762 C62.38429985 79.96999886 62.38429985 79.96999886 61.15913391 80.00028992 C60.2996666 80.00667984 59.44019928 80.01306976 58.5546875 80.01965332 C57.67109055 80.03760452 56.78749359 80.05555573 55.87712097 80.0740509 C53.05484795 80.12823453 50.23274481 80.16207518 47.41015625 80.19543457 C45.49672111 80.22860056 43.58330841 80.26308955 41.66992188 80.2989502 C36.9792891 80.38396556 32.28870741 80.45073819 27.59765625 80.50793457 C28.32564214 84.75333523 29.54262636 87.26047562 32.09765625 90.75793457 C32.72671875 91.62934082 33.35578125 92.50074707 34.00390625 93.39855957 C35.42817449 95.38442282 35.42817449 95.38442282 36.59765625 96.50793457 C38.85325666 96.6301145 41.11240118 96.68774329 43.37109375 96.71887207 C44.76693876 96.74694329 46.16277194 96.77560777 47.55859375 96.80480957 C49.76627237 96.84607459 51.97373081 96.8829474 54.18164062 96.90930176 C56.30775991 96.93690134 58.4328647 96.98277375 60.55859375 97.03137207 C61.83524902 97.05119141 63.1119043 97.07101074 64.42724609 97.09143066 C67.59765625 97.50793457 67.59765625 97.50793457 69.51708984 98.91662598 C70.87855267 100.92159993 70.93878585 102.10211323 70.84765625 104.50793457 C70.8321875 105.18855957 70.81671875 105.86918457 70.80078125 106.57043457 C70.59765625 108.50793457 70.59765625 108.50793457 69.59765625 111.50793457 C74.97249475 114.19535382 81.58840412 112.50793457 87.59765625 112.50793457 C87.59765625 80.82793457 87.59765625 49.14793457 87.59765625 16.50793457 C66.47765625 16.50793457 45.35765625 16.50793457 23.59765625 16.50793457 Z " fill="#433B2D" transform="translate(24.40234375,87.4920654296875)"/>
<path d="M0 0 C0.99 0 1.98 0 3 0 C10.38592859 12.77444519 17.75651645 25.55698215 25.06518555 38.37579346 C30.49705241 47.90283583 35.96516838 57.40726854 41.5 66.875 C42.07516357 67.85952148 42.65032715 68.84404297 43.24291992 69.85839844 C46.30944964 75.10750365 46.30944964 75.10750365 49.37792969 80.35546875 C50.54810112 82.35942105 51.7126603 84.36649833 52.875 86.375 C53.49117187 87.43460937 54.10734375 88.49421875 54.7421875 89.5859375 C56 92 56 92 56 94 C38.63164595 100.63120288 21.22800072 107.16246773 3.79714966 113.62747192 C-7.01171146 117.63707609 -17.80877597 121.67540126 -28.5859375 125.76953125 C-29.61869812 126.16150696 -30.65145874 126.55348267 -31.71551514 126.95733643 C-36.72700824 128.85988339 -41.73681196 130.76669558 -46.74414062 132.68017578 C-48.55593316 133.36896355 -50.36777929 134.05761034 -52.1796875 134.74609375 C-53.00165619 135.06197952 -53.82362488 135.3778653 -54.67050171 135.70332336 C-58.42758756 137.12683291 -62.00645522 138.39211264 -66 139 C-66.60303955 137.90667358 -66.60303955 137.90667358 -67.21826172 136.79125977 C-76.69049507 119.58116842 -76.69049507 119.58116842 -86.5 102.5625 C-86.8913916 101.89782715 -87.2827832 101.2331543 -87.68603516 100.54833984 C-89.4960957 97.48772016 -91.33671566 94.45244992 -93.234375 91.4453125 C-93.89953125 90.37023437 -94.5646875 89.29515625 -95.25 88.1875 C-95.83265625 87.27355469 -96.4153125 86.35960937 -97.015625 85.41796875 C-98 83 -98 83 -97.546875 81.00390625 C-95.36625785 78.17901585 -92.75042499 75.99163955 -90 73.75 C-89.12432373 73.02321045 -89.12432373 73.02321045 -88.23095703 72.28173828 C-84.01200629 68.79190344 -79.7466094 65.35958839 -75.45703125 61.95703125 C-70.93214517 58.35294869 -66.47231298 54.66894134 -62 51 C-60.29177642 49.60403235 -58.58344143 48.20820102 -56.875 46.8125 C-52.07462405 42.88554489 -47.28643525 38.94393032 -42.5 35 C-36.01094999 29.65314796 -29.51155167 24.31943682 -23 19 C-20.26272993 16.7607719 -17.52580642 14.52112111 -14.7890625 12.28125 C-12.82642767 10.67595764 -10.86295334 9.0717361 -8.8984375 7.46875 C-7.90070313 6.6540625 -6.90296875 5.839375 -5.875 5 C-4.96492188 4.2575 -4.05484375 3.515 -3.1171875 2.75 C-2.04918385 1.86722208 -0.97977769 0.97977769 0 0 Z " fill="#FECC52" transform="translate(254,205)"/>
<path d="M0 0 C7.92 0 15.84 0 24 0 C24.26671536 8.8750756 24.5071672 17.74981358 24.70202446 26.62676334 C24.79355181 30.74913296 24.89636088 34.87056356 25.02539062 38.99194336 C25.14959693 42.97274855 25.24359511 46.95324782 25.31708145 50.93530083 C25.3502824 52.45093358 25.39418624 53.96637253 25.44918442 55.48137093 C25.92259516 68.84475918 25.92259516 68.84475918 22.0612793 73.32470703 C21.04766503 74.22420679 20.02822355 75.11723727 19 76 C15.8185698 82.09543583 15.88216402 89.28254547 17.83984375 95.79296875 C20.56351536 101.85474294 24.22450611 105.72560911 30 109 C32.93686677 110.16094075 32.93686677 110.16094075 35.93359375 109.96484375 C44.14529951 109.90076132 48.37876812 111.30936859 54.390625 116.91821289 C69.06645948 130.51025631 89.24774664 134.70470627 108.69921875 135.1640625 C110.17080444 135.20430542 110.17080444 135.20430542 111.67211914 135.24536133 C113.60190686 135.28923827 115.53236317 135.31086061 117.46264648 135.30737305 C123.85128122 135.43959152 126.46869398 136.50271279 131 141 C136.2428927 144.46030918 142.9959048 143.55680436 149 143 C152.69446553 141.86881372 155.8170908 140.35491473 158.41035461 137.38456726 C160.57370957 135.50030397 161.9055326 135.63705144 164.74682617 135.65942383 C165.70759567 135.65965042 166.66836517 135.65987701 167.6582489 135.66011047 C169.20993523 135.68333626 169.20993523 135.68333626 170.79296875 135.70703125 C171.85413406 135.71127609 172.91529938 135.71552094 174.00862122 135.71989441 C177.40183765 135.73670294 180.79446272 135.77435981 184.1875 135.8125 C186.48631956 135.827544 188.78514841 135.84123289 191.08398438 135.85351562 C196.72306802 135.88406321 202.36087117 135.94278223 208 136 C208 143.92 208 151.84 208 160 C139.36 160 70.72 160 0 160 C0 107.2 0 54.4 0 0 Z " fill="#FECC52" transform="translate(56,272)"/>
<path d="M0 0 C1.06077255 -0.00671722 2.1215451 -0.01343445 3.21446228 -0.02035522 C6.72008961 -0.03934785 10.2255256 -0.04326016 13.73120117 -0.04541016 C16.17111795 -0.05183742 18.61103395 -0.05856573 21.0509491 -0.06558228 C26.1661457 -0.07755838 31.28127474 -0.08126277 36.39648438 -0.08007812 C42.94350949 -0.07987497 49.49010035 -0.10717221 56.03702259 -0.14162254 C61.07714315 -0.16388623 66.11715914 -0.16791581 71.15732384 -0.16685867 C73.5705992 -0.16921561 75.9838774 -0.17804428 78.39710426 -0.19352341 C81.77676205 -0.21317076 85.1554826 -0.2073493 88.53515625 -0.1953125 C89.52712006 -0.20655151 90.51908386 -0.21779053 91.54110718 -0.22937012 C98.82624198 -0.16360776 104.17378339 1.40933061 109.70385742 6.25537109 C110.24268555 6.90634766 110.78151367 7.55732422 111.33666992 8.22802734 C111.8909668 8.87642578 112.44526367 9.52482422 113.01635742 10.19287109 C116.92413985 15.8644364 116.75825447 21.15906925 116.75219727 27.82885742 C116.75891449 28.88962997 116.76563171 29.95040253 116.77255249 31.0433197 C116.79154512 34.54894703 116.79545743 38.05438302 116.79760742 41.56005859 C116.80403469 43.99997537 116.810763 46.43989137 116.81777954 48.87980652 C116.82975564 53.99500312 116.83346004 59.11013217 116.83227539 64.2253418 C116.83207224 70.77236692 116.85936947 77.31895777 116.89381981 83.86588001 C116.9160835 88.90600057 116.92011308 93.94601656 116.91905594 98.98618126 C116.92141287 101.39945662 116.93024155 103.81273482 116.94572067 106.22596169 C116.96536802 109.60561948 116.95954656 112.98434002 116.94750977 116.36401367 C116.95874878 117.35597748 116.96998779 118.34794128 116.98156738 119.3699646 C116.91580503 126.6550994 115.34286665 132.00264081 110.49682617 137.53271484 C109.84584961 138.07154297 109.19487305 138.61037109 108.52416992 139.16552734 C107.87577148 139.71982422 107.22737305 140.27412109 106.55932617 140.84521484 C100.88776087 144.75299727 95.59312802 144.58711189 88.92333984 144.58105469 C87.86256729 144.58777191 86.80179474 144.59448914 85.70887756 144.60140991 C82.20325023 144.62040254 78.69781425 144.62431485 75.19213867 144.62646484 C72.7522219 144.63289211 70.3123059 144.63962042 67.87239075 144.64663696 C62.75719415 144.65861307 57.6420651 144.66231746 52.52685547 144.66113281 C45.97983035 144.66092966 39.43323949 144.6882269 32.88631725 144.72267723 C27.84619669 144.74494092 22.8061807 144.7489705 17.76601601 144.74791336 C15.35274065 144.7502703 12.93946245 144.75909897 10.52623558 144.77457809 C7.14657779 144.79422544 3.76785724 144.78840398 0.38818359 144.77636719 C-1.09976212 144.79322571 -1.09976212 144.79322571 -2.61776733 144.8104248 C-9.90290213 144.74466245 -15.25044355 143.17172408 -20.78051758 138.32568359 C-21.58875977 137.34921875 -21.58875977 137.34921875 -22.41333008 136.35302734 C-22.96762695 135.70462891 -23.52192383 135.05623047 -24.09301758 134.38818359 C-28.0008 128.71661829 -27.83491462 123.42198544 -27.82885742 116.75219727 C-27.83557465 115.69142471 -27.84229187 114.63065216 -27.84921265 113.53773499 C-27.86820527 110.03210766 -27.87211758 106.52667167 -27.87426758 103.02099609 C-27.88069485 100.58107932 -27.88742315 98.14116332 -27.8944397 95.70124817 C-27.9064158 90.58605157 -27.91012019 85.47092252 -27.90893555 80.35571289 C-27.9087324 73.80868777 -27.93602963 67.26209691 -27.97047997 60.71517467 C-27.99274365 55.67505412 -27.99677323 50.63503813 -27.99571609 45.59487343 C-27.99807303 43.18159807 -28.00690171 40.76831987 -28.02238083 38.355093 C-28.04202818 34.97543521 -28.03620672 31.59671466 -28.02416992 28.21704102 C-28.03540894 27.22507721 -28.04664795 26.2331134 -28.05822754 25.21109009 C-27.99246518 17.92595529 -26.41952681 12.57841387 -21.57348633 7.04833984 C-20.92250977 6.50951172 -20.2715332 5.97068359 -19.60083008 5.41552734 C-18.95243164 4.86123047 -18.3040332 4.30693359 -17.63598633 3.73583984 C-11.96442103 -0.17194258 -6.66978817 -0.0060572 0 0 Z M-9.61184692 18.2170105 C-12.32664837 22.54821265 -12.22604683 26.03026915 -12.15356445 31.05029297 C-12.15911346 32.02810226 -12.16466248 33.00591156 -12.17037964 34.01335144 C-12.18217882 37.24166045 -12.15789699 40.46856675 -12.13208008 43.69677734 C-12.130369 45.94209733 -12.13043463 48.18741932 -12.13220215 50.43273926 C-12.13054874 55.13699471 -12.11184618 59.84077372 -12.08032227 64.54492188 C-12.04064505 70.57433304 -12.03627699 76.60312009 -12.0437851 82.63263702 C-12.04685492 87.26863317 -12.03473374 91.90448906 -12.01765442 96.54045105 C-12.01062406 98.7635968 -12.00749993 100.98675845 -12.00834656 103.20991516 C-12.00654848 106.31715615 -11.98516499 109.42364995 -11.95825195 112.53076172 C-11.96118256 113.44935471 -11.96411316 114.36794769 -11.96713257 115.31437683 C-11.90313669 120.10415868 -11.7024054 123.4263306 -8.53833008 127.29052734 C-6.26727186 128.42605645 -5.01896618 128.42078329 -2.49711609 128.43096924 C-1.651763 128.43667938 -0.80640991 128.44238953 0.06455994 128.44827271 C0.99393875 128.44939056 1.92331757 128.45050842 2.88085938 128.45166016 C3.85823059 128.45662506 4.83560181 128.46158997 5.84259033 128.46670532 C9.08671769 128.4813502 12.33079614 128.48813302 15.57495117 128.49365234 C17.82455955 128.49940213 20.07416791 128.50515988 22.32377625 128.51092529 C27.04576852 128.52144208 31.76774374 128.52728023 36.48974609 128.53076172 C42.54271028 128.53624613 48.59544947 128.56027034 54.64834309 128.58873367 C59.29716146 128.60735099 63.94592556 128.61256519 68.59477806 128.6140976 C70.82631853 128.61712698 73.05785798 128.62516508 75.28936195 128.63828278 C78.41118128 128.65532313 81.53245001 128.65346771 84.65429688 128.64697266 C85.577603 128.65618744 86.50090912 128.66540222 87.45219421 128.67489624 C92.22589801 128.64375886 95.66280763 128.53537092 99.46166992 125.29052734 C100.3740838 122.55328572 100.59073762 120.93981057 100.60211182 118.12232971 C100.60782196 117.2741568 100.6135321 116.42598389 100.61941528 115.55210876 C100.62053314 114.62475418 100.621651 113.6973996 100.62280273 112.74194336 C100.62776764 111.76281982 100.63273254 110.78369629 100.6378479 109.77490234 C100.65247003 106.53140566 100.65927093 103.28795784 100.66479492 100.04443359 C100.67054546 97.79385883 100.6763032 95.54328408 100.68206787 93.29270935 C100.6925774 88.57249727 100.69842068 83.85230222 100.7019043 79.13208008 C100.70739495 73.07792537 100.7314355 67.0239949 100.75987625 60.96991062 C100.77847894 56.32113481 100.78370693 51.67241333 100.78524017 47.02360344 C100.78827159 44.79123646 100.79631647 42.55887054 100.80942535 40.32653999 C100.82643931 37.20702033 100.82461709 34.08805282 100.81811523 30.96850586 C100.82733002 30.04317551 100.8365448 29.11784515 100.84603882 28.16447449 C100.82962494 23.26465099 100.82962494 23.26465099 99.12689209 18.74815369 C96.38663277 16.34951028 93.78862825 16.16305447 90.30020142 16.1366272 C89.03010979 16.1237265 89.03010979 16.1237265 87.73435974 16.11056519 C86.34568443 16.10417526 86.34568443 16.10417526 84.92895508 16.09765625 C83.95143784 16.08947876 82.97392059 16.08130127 81.96678162 16.07287598 C78.7281048 16.04803835 75.48947168 16.03151211 72.25073242 16.01708984 C71.1454356 16.01176617 70.04013878 16.00644249 68.90134811 16.00095749 C63.05362389 15.97423593 57.20592098 15.95485583 51.3581543 15.94042969 C45.31291475 15.92376354 39.26821842 15.87896598 33.22318459 15.82805824 C28.57865761 15.79444119 23.93426063 15.78285845 19.28962326 15.77720261 C17.06084404 15.7704773 14.83207374 15.75522228 12.60341263 15.7313118 C9.48621205 15.6997705 6.37049141 15.69960697 3.25317383 15.70703125 C2.33143875 15.69062592 1.40970367 15.67422058 0.46003723 15.65731812 C-3.74383794 15.69834486 -5.98713791 15.94503959 -9.61184692 18.2170105 Z " fill="#433C2E" transform="translate(379.538330078125,263.70947265625)"/>
<path d="M0 0 C84.48 0 168.96 0 256 0 C256 12.80045962 255.61159622 18.74885865 247.26953125 27.4921875 C240.49699815 31.99166732 233.35227715 32.41396831 225.4375 32.1875 C224.52419922 32.17396484 223.61089844 32.16042969 222.66992188 32.14648438 C220.44596741 32.11155315 218.22332048 32.06251586 216 32 C215.96132813 30.87851562 215.96132813 30.87851562 215.921875 29.734375 C215.65771648 23.7203659 215.65771648 23.7203659 213.3125 18.3125 C210.24237189 16.56999486 208.47787674 16.42035388 205 17 C202.4631891 18.1982517 202.4631891 18.1982517 201 21 C200.67 24.63 200.34 28.26 200 32 C152.48 32 104.96 32 56 32 C55.505 26.555 55.505 26.555 55 21 C53.5368109 18.1982517 53.5368109 18.1982517 51 17 C47.52212326 16.42035388 45.75762811 16.56999486 42.6875 18.3125 C40.02899065 22.5464223 40.16933244 27.0893592 40 32 C36.50028801 32.1173794 33.00109045 32.18763961 29.5 32.25 C28.02660156 32.30027344 28.02660156 32.30027344 26.5234375 32.3515625 C18.66670065 32.45631899 13.48832266 31.04536105 7.5390625 25.8515625 C6.90742187 25.11679687 6.27578125 24.38203125 5.625 23.625 C4.97789063 22.89539063 4.33078125 22.16578125 3.6640625 21.4140625 C-1.20240065 14.35426385 0 8.80349345 0 0 Z " fill="#FED369" transform="translate(32,448)"/>
<path d="M0 0 C14.35546434 11.70990834 26.06794902 27.89121936 28.30664062 46.72021484 C29.76601625 68.44058871 26.97909464 88.67535502 12.32739258 105.62890625 C-0.87957734 120.09489289 -17.32732525 130.10586173 -37.24804688 131.03271484 C-57.93878131 131.62467515 -76.50369154 127.612305 -92.13085938 113.34521484 C-106.8738166 99.20544466 -115.50400135 82.70692505 -116.09399414 62.08496094 C-116.33065412 41.68831843 -111.22582647 23.74080029 -96.89331055 8.796875 C-71.34187485 -16.78517169 -29.7766123 -22.50418132 0 0 Z M-85.69335938 20.72021484 C-96.65077 33.9972386 -100.97305451 48.51051853 -99.93603516 65.53027344 C-98.37115281 79.65199845 -90.31904745 93.63060821 -79.41210938 102.59521484 C-65.85975275 112.54504629 -51.39492453 116.57097914 -34.69335938 114.72021484 C-20.16699724 111.90238067 -6.82969254 103.91826598 1.99414062 92.03271484 C11.12715232 78.35404893 13.96450251 63.5158943 11.87695312 47.40380859 C8.64230814 32.40863339 -0.27912167 19.72027101 -12.97851562 11.28662109 C-37.17031057 -2.67152246 -66.10521285 -0.09219084 -85.69335938 20.72021484 Z " fill="#433C2E" transform="translate(259.693359375,21.27978515625)"/>
<path d="M0 0 C1.46373047 0.06767578 1.46373047 0.06767578 2.95703125 0.13671875 C3.69308594 0.19472656 4.42914063 0.25273437 5.1875 0.3125 C5.20731934 1.19808594 5.22713867 2.08367188 5.24755859 2.99609375 C5.37236735 43.7839169 5.37236735 43.7839169 25.6875 78 C26.5125 78.763125 27.3375 79.52625 28.1875 80.3125 C28.5175 75.0325 28.8475 69.7525 29.1875 64.3125 C27.29 64.395 25.3925 64.4775 23.4375 64.5625 C17.84640909 64.80559091 17.84640909 64.80559091 14.828125 62.546875 C13.09726018 60.18960195 12.64257347 59.18779794 12.6875 56.3125 C12.6771875 55.6525 12.666875 54.9925 12.65625 54.3125 C13.44827731 51.33075014 14.73423186 50.14838941 17.1875 48.3125 C20.203125 47.921875 20.203125 47.921875 23.4375 48.0625 C24.51515625 48.09859375 25.5928125 48.1346875 26.703125 48.171875 C27.52296875 48.21828125 28.3428125 48.2646875 29.1875 48.3125 C29.14109375 47.3225 29.0946875 46.3325 29.046875 45.3125 C28.5666753 30.95016356 28.5666753 30.95016356 33.1875 25.3125 C37.85349473 20.4224596 42.23561563 16.6974343 49.17016602 16.02197266 C52.69716333 15.97301217 56.22263761 15.94120327 59.75 15.9375 C60.98169922 15.91300781 62.21339844 15.88851562 63.48242188 15.86328125 C64.66513672 15.85941406 65.84785156 15.85554688 67.06640625 15.8515625 C68.1447876 15.84334473 69.22316895 15.83512695 70.33422852 15.82666016 C73.85018452 16.42533838 75.01008602 17.54733561 77.1875 20.3125 C77.71875 22.3125 77.71875 22.3125 77.6875 24.3125 C77.70296875 25.3025 77.70296875 25.3025 77.71875 26.3125 C76.88686936 29.44428594 75.87241008 30.45776574 73.1875 32.3125 C69.88039939 32.89829882 66.60259529 32.91824604 63.25 32.9375 C55.44231412 32.82277622 55.44231412 32.82277622 48.1875 35.3125 C45.83385803 39.31369135 45.64926068 43.77185328 45.1875 48.3125 C46.00734375 48.26609375 46.8271875 48.2196875 47.671875 48.171875 C48.74953125 48.13578125 49.8271875 48.0996875 50.9375 48.0625 C52.00484375 48.01609375 53.0721875 47.9696875 54.171875 47.921875 C57.1875 48.3125 57.1875 48.3125 59.546875 50.078125 C61.27773982 52.43539805 61.73242653 53.43720206 61.6875 56.3125 C61.70296875 57.3025 61.70296875 57.3025 61.71875 58.3125 C61.1875 60.3125 61.1875 60.3125 57.1875 64.3125 C53.2275 64.3125 49.2675 64.3125 45.1875 64.3125 C45.1875 73.2225 45.1875 82.1325 45.1875 91.3125 C58.91620839 94.48066348 71.3964515 95.50855203 85.3125 95.875 C86.85678003 95.91829302 88.401051 95.96191033 89.9453125 96.00585938 C93.69261139 96.11180941 97.44001353 96.2133787 101.1875 96.3125 C101.2230571 97.91520342 101.24844912 99.51813458 101.26953125 101.12109375 C101.29237183 102.45998657 101.29237183 102.45998657 101.31567383 103.82592773 C101.14962658 107.04724429 100.2994095 108.88771502 98.1875 111.3125 C95.45025838 112.22491387 93.83678323 112.4415677 91.01930237 112.45294189 C89.747043 112.46150711 89.747043 112.46150711 88.44908142 112.47024536 C87.52172684 112.47136322 86.59437225 112.47248108 85.63891602 112.47363281 C84.65979248 112.47859772 83.68066895 112.48356262 82.671875 112.48867798 C79.42837831 112.50330011 76.1849305 112.51010101 72.94140625 112.515625 C70.69083148 112.52137553 68.44025674 112.52713328 66.18968201 112.53289795 C61.46946992 112.54340748 56.74927487 112.54925075 52.02905273 112.55273438 C45.97489803 112.55822503 39.92096756 112.58226558 33.86688328 112.61070633 C29.21810747 112.62930901 24.56938599 112.634537 19.9205761 112.63607025 C17.68820912 112.63910166 15.4558432 112.64714655 13.22351265 112.66025543 C10.10399298 112.67726939 6.98502548 112.67544717 3.86547852 112.66894531 C2.94014816 112.6781601 2.01481781 112.68737488 1.06144714 112.6968689 C-5.15791068 112.65616755 -5.15791068 112.65616755 -8.35487366 110.97772217 C-10.75351706 108.23746285 -10.93997287 105.63945833 -10.96640015 102.15103149 C-10.97500061 101.30430374 -10.98360107 100.45757599 -10.99246216 99.58518982 C-10.99672211 98.65940628 -11.00098206 97.73362274 -11.00537109 96.77978516 C-11.01354858 95.80226791 -11.02172607 94.82475067 -11.03015137 93.81761169 C-11.05498899 90.57893487 -11.07151524 87.34030176 -11.0859375 84.1015625 C-11.09126118 82.99626568 -11.09658485 81.89096886 -11.10206985 80.75217819 C-11.12879141 74.90445397 -11.14817151 69.05675105 -11.16259766 63.20898438 C-11.17926381 57.16374483 -11.22406136 51.1190485 -11.2749691 45.07401466 C-11.30858616 40.42948768 -11.32016889 35.78509071 -11.32582474 31.14045334 C-11.33255004 28.91167411 -11.34780507 26.68290382 -11.37171555 24.45424271 C-11.40325684 21.33704212 -11.40342037 18.22132149 -11.39599609 15.10400391 C-11.41240143 14.18226883 -11.42880676 13.26053375 -11.44570923 12.31086731 C-11.40178704 7.810305 -11.26965399 5.91053089 -8.4569397 2.23104858 C-5.32762955 -0.0392749 -3.81442883 -0.22978487 0 0 Z " fill="#FECC52" transform="translate(378.8125,31.6875)"/>
<path d="M0 0 C5.28 0 10.56 0 16 0 C16.33 15.84 16.66 31.68 17 48 C20.1128862 48 23.22353016 47.94841392 26.33592224 47.8973999 C29.92264904 47.84425784 33.50945787 47.81144557 37.09643555 47.78027344 C38.98877828 47.76010926 40.88105835 47.73277793 42.77319336 47.69824219 C45.50389843 47.64972169 48.23378639 47.62703903 50.96484375 47.609375 C52.23218605 47.57840729 52.23218605 47.57840729 53.52513123 47.54681396 C59.3930167 47.54457227 59.3930167 47.54457227 62.53149414 49.89941406 C64.11786625 52.16859871 64.54280334 53.260586 64.5 56 C64.51546875 56.99 64.51546875 56.99 64.53125 58 C63.71779837 61.06240614 62.54617313 62.09453377 60 64 C56.95030761 64.55894119 53.95080334 64.46533239 50.859375 64.390625 C49.97719299 64.38496521 49.09501099 64.37930542 48.18609619 64.37347412 C45.37350787 64.35111591 42.56220205 64.30092132 39.75 64.25 C37.84116426 64.22993425 35.93230851 64.21168361 34.0234375 64.1953125 C29.34846555 64.151253 24.67445008 64.08222984 20 64 C20.7420806 65.56627668 21.49408378 67.12785359 22.25 68.6875 C22.66765625 69.55761719 23.0853125 70.42773438 23.515625 71.32421875 C25.15910122 74.28680089 26.56019147 76.62927735 29 79 C32.30993566 79.71476226 32.30993566 79.71476226 36.03125 79.56640625 C36.70418091 79.57204086 37.37711182 79.57767548 38.07043457 79.58348083 C40.21433648 79.59990474 42.35617047 79.58441513 44.5 79.5625 C46.64363544 79.54588454 48.78590857 79.53683422 50.92956543 79.55223083 C52.87423067 79.5657492 54.81903299 79.5503365 56.76367188 79.53344727 C60.5601908 80.08075774 61.71974598 80.97862831 64 84 C64.390625 86.03515625 64.390625 86.03515625 64.25 88.0625 C64.10337454 90.37185092 64 92.68599899 64 95 C69.28 95.33 74.56 95.66 80 96 C80 101.28 80 106.56 80 112 C53.6 112 27.2 112 0 112 C0 75.04 0 38.08 0 0 Z " fill="#FECC52" transform="translate(32,104)"/>
<path d="M0 0 C6.99773144 4.55815534 12.26180792 11.78309197 14 20 C15.04069687 30.8712796 12.787557 40.62235975 5.8359375 49.21484375 C-0.73045499 55.59961262 -9.18716711 59.26357957 -18.3125 59.375 C-24.43154644 59.26374461 -28.79104306 58.16894719 -34 55 C-35.04800781 54.38125 -35.04800781 54.38125 -36.1171875 53.75 C-42.81084898 49.30439841 -47.10142834 42.75159304 -49.375 35.0625 C-51.31856096 25.02076838 -49.95385167 17.53767572 -44.71484375 8.875 C-34.15048869 -6.66254727 -15.81988222 -8.80431037 0 0 Z " fill="#453E2E" transform="translate(442,309)"/>
<path d="M0 0 C0.35602295 0.64211426 0.7120459 1.28422852 1.07885742 1.94580078 C8.6247805 15.536427 16.29750249 29.03011675 24.2578125 42.3828125 C25.17229063 43.92162808 26.08638285 45.46067309 27 47 C27.4134668 47.6919043 27.82693359 48.38380859 28.25292969 49.09667969 C31 53.7698291 31 53.7698291 31 56 C27.55048908 57.94068489 24.09993359 59.87949821 20.6484375 61.81665039 C18.90310147 62.79672001 17.15857515 63.77823114 15.4140625 64.75976562 C14.30546875 65.38173828 13.196875 66.00371094 12.0546875 66.64453125 C10.53077393 67.50075073 10.53077393 67.50075073 8.97607422 68.37426758 C-0.29697266 73.43983109 -0.29697266 73.43983109 -4.9375 73.5 C-5.73027344 73.5309375 -6.52304688 73.561875 -7.33984375 73.59375 C-12.71582476 72.39382472 -15.82310475 69.68464969 -18.8996582 65.28076172 C-20.91261161 61.95963118 -22.81797385 58.59027275 -24.6875 55.1875 C-25.34300003 54.0245998 -25.99989254 52.86248335 -26.65820312 51.70117188 C-28.46777742 48.48230628 -30.24380594 45.24824512 -32 42 C-32.43844238 41.19264404 -32.87688477 40.38528809 -33.32861328 39.5534668 C-36.04093266 34.38050521 -36.94319663 30.72136854 -36 25 C-33.51041833 17.53125498 -27.61811668 14.87466401 -21.0078125 11.14599609 C-18.79822253 9.88483178 -16.61744147 8.58124519 -14.4375 7.26953125 C-12.89606611 6.34596556 -11.35440203 5.42278392 -9.8125 4.5 C-9.0697583 4.05422607 -8.3270166 3.60845215 -7.56176758 3.14916992 C-2.22902472 0 -2.22902472 0 0 0 Z " fill="#FDD269" transform="translate(143,296)"/>
<path d="M0 0 C4.72413732 1.47798414 9.06814268 3.68980167 13.47207642 5.92544556 C15.04253975 6.70815071 15.04253975 6.70815071 16.64472961 7.50666809 C18.84701978 8.60796215 21.04634361 9.71520585 23.24282837 10.82803345 C26.60737603 12.53019635 29.98307894 14.20848338 33.36074829 15.88442993 C35.50272905 16.95919847 37.64402956 18.03532403 39.78457642 19.11294556 C40.79393753 19.61413406 41.80329865 20.11532257 42.84324646 20.63169861 C43.77819443 21.10866684 44.7131424 21.58563507 45.67642212 22.07705688 C46.49834549 22.49151566 47.32026886 22.90597443 48.167099 23.33299255 C50.54288028 24.87886189 51.81519931 26.3123088 53.29629517 28.71841431 C53.79629517 31.65591431 53.79629517 31.65591431 53.29629517 34.71841431 C49.09009473 40.00034954 43.47746859 42.49813445 37.51895142 45.45669556 C36.47484604 45.9823259 35.43074066 46.50795624 34.35499573 47.04951477 C32.15278404 48.15450262 29.94801302 49.25440263 27.74087524 50.34951782 C24.36618517 52.02724038 21.00389449 53.72811784 17.64199829 55.43130493 C15.49752471 56.50368688 13.35236472 57.57469751 11.20645142 58.64419556 C10.20316299 59.15348099 9.19987457 59.66276642 8.16618347 60.18748474 C7.22177902 60.65184433 6.27737457 61.11620392 5.30435181 61.59463501 C4.48004166 62.00591141 3.65573151 62.41718781 2.80644226 62.84092712 C-0.18874639 63.88797319 -2.55091671 63.95754892 -5.70370483 63.71841431 C-8.83962054 61.93857026 -9.54473219 61.19533224 -10.70370483 57.71841431 C-10.81596796 56.01207274 -10.87266895 54.30181291 -10.89657593 52.59194946 C-10.92067032 51.02484726 -10.92067032 51.02484726 -10.94525146 49.42608643 C-10.98972826 44.65830167 -11.03074788 39.89065475 -11.05380249 35.12271118 C-11.07038108 32.6066667 -11.09769565 30.09066967 -11.13583374 27.57485962 C-11.190527 23.9479834 -11.21246405 20.32220955 -11.22714233 16.69497681 C-11.24981171 15.57088409 -11.27248108 14.44679138 -11.2958374 13.28863525 C-11.28277541 8.47162255 -11.22748619 5.57158783 -8.67098999 1.40737915 C-5.46784584 -0.41583553 -3.61322322 -0.72538853 0 0 Z " fill="#453D2E" transform="translate(202.70370483398438,48.281585693359375)"/>
<path d="M0 0 C1.23169922 -0.02449219 2.46339844 -0.04898438 3.73242188 -0.07421875 C5.50649414 -0.08001953 5.50649414 -0.08001953 7.31640625 -0.0859375 C8.3947876 -0.09415527 9.47316895 -0.10237305 10.58422852 -0.11083984 C14.10018452 0.48783838 15.26008602 1.60983561 17.4375 4.375 C17.96875 6.375 17.96875 6.375 17.9375 8.375 C17.95296875 9.365 17.95296875 9.365 17.96875 10.375 C17.13686936 13.50678594 16.12241008 14.52026574 13.4375 16.375 C10.13039939 16.96079882 6.85259529 16.98074604 3.5 17 C-4.30768588 16.88527622 -4.30768588 16.88527622 -11.5625 19.375 C-13.91614197 23.37619135 -14.10073932 27.83435328 -14.5625 32.375 C-13.74265625 32.32859375 -12.9228125 32.2821875 -12.078125 32.234375 C-11.00046875 32.19828125 -9.9228125 32.1621875 -8.8125 32.125 C-7.21148437 32.05539063 -7.21148437 32.05539063 -5.578125 31.984375 C-2.5625 32.375 -2.5625 32.375 -0.203125 34.140625 C1.52773982 36.49789805 1.98242653 37.49970206 1.9375 40.375 C1.9478125 41.035 1.958125 41.695 1.96875 42.375 C1.18549158 45.3237376 -0.19764715 46.47841544 -2.5625 48.375 C-5.578125 48.765625 -5.578125 48.765625 -8.8125 48.625 C-9.89015625 48.58890625 -10.9678125 48.5528125 -12.078125 48.515625 C-12.89796875 48.46921875 -13.7178125 48.4228125 -14.5625 48.375 C-14.53631592 49.16672607 -14.51013184 49.95845215 -14.4831543 50.77416992 C-14.37905878 54.37007717 -14.314131 57.96566731 -14.25 61.5625 C-14.20810547 62.80837891 -14.16621094 64.05425781 -14.12304688 65.33789062 C-13.98488535 75.64474058 -13.98488535 75.64474058 -16.890625 78.70703125 C-20.14530794 80.73882893 -21.79162984 81.01685024 -25.5625 80.375 C-28.6984157 78.59515595 -29.40352736 77.85191793 -30.5625 74.375 C-30.64541953 72.3829697 -30.66988177 70.38826287 -30.66015625 68.39453125 C-30.65693359 67.23115234 -30.65371094 66.06777344 -30.65039062 64.86914062 C-30.64201172 63.65419922 -30.63363281 62.43925781 -30.625 61.1875 C-30.61823242 59.34768555 -30.61823242 59.34768555 -30.61132812 57.47070312 C-30.59953065 54.43875332 -30.58306921 51.40690094 -30.5625 48.375 C-31.38234375 48.42140625 -32.2021875 48.4678125 -33.046875 48.515625 C-34.66335938 48.56976563 -34.66335938 48.56976563 -36.3125 48.625 C-37.37984375 48.67140625 -38.4471875 48.7178125 -39.546875 48.765625 C-43.23093728 48.28841486 -44.3145782 47.26174857 -46.5625 44.375 C-47.09375 42.375 -47.09375 42.375 -47.0625 40.375 C-47.0728125 39.715 -47.083125 39.055 -47.09375 38.375 C-46.30172269 35.39325014 -45.01576814 34.21088941 -42.5625 32.375 C-39.546875 31.984375 -39.546875 31.984375 -36.3125 32.125 C-35.23484375 32.16109375 -34.1571875 32.1971875 -33.046875 32.234375 C-31.81710937 32.30398437 -31.81710937 32.30398437 -30.5625 32.375 C-30.60890625 31.385 -30.6553125 30.395 -30.703125 29.375 C-31.1833247 15.01266356 -31.1833247 15.01266356 -26.5625 9.375 C-18.33827306 0.75587281 -11.61272433 0.01219184 0 0 Z " fill="#433C2E" transform="translate(438.5625,47.625)"/>
<path d="M0 0 C1.77483667 2.95806112 2.00700002 5.45300046 2.125 8.875 C1.25 11.625 1.25 11.625 -0.875 13.875 C-7.96702789 16.63259567 -15.26243956 18.1759602 -22.7121582 19.66479492 C-24.67591591 20.06016772 -26.63585153 20.47437041 -28.59570312 20.88867188 C-45.07933508 24.21541398 -45.07933508 24.21541398 -51.875 22.875 C-55.6400478 19.75952594 -55.6400478 19.75952594 -56.40625 16.875 C-56.3959375 16.215 -56.385625 15.555 -56.375 14.875 C-56.39046875 13.885 -56.39046875 13.885 -56.40625 12.875 C-55.63135213 9.95773744 -54.16825536 8.80952316 -51.875 6.875 C-49.08862305 5.91772461 -49.08862305 5.91772461 -45.88671875 5.27734375 C-44.71197998 5.03443604 -43.53724121 4.79152832 -42.3269043 4.54125977 C-40.46352417 4.18052368 -40.46352417 4.18052368 -38.5625 3.8125 C-37.29897705 3.55718506 -36.0354541 3.30187012 -34.73364258 3.03881836 C-32.23636376 2.5353153 -29.73792758 2.03751315 -27.23828125 1.54589844 C-24.46252474 0.99219788 -21.69917535 0.40818163 -18.9375 -0.2109375 C-17.65875 -0.49195313 -16.38 -0.77296875 -15.0625 -1.0625 C-14.00417969 -1.29839844 -12.94585937 -1.53429687 -11.85546875 -1.77734375 C-7.7372981 -2.25770704 -3.62310487 -2.17386292 0 0 Z " fill="#423B2E" transform="translate(390.875,225.125)"/>
<path d="M0 0 C2.5 1.5 2.5 1.5 4 4 C4.77403846 9.41826923 4.77403846 9.41826923 4 12 C-0.28411581 17.10391575 -5.89395744 20.88339286 -11.1875 24.875 C-12.08275391 25.55691406 -12.97800781 26.23882812 -13.90039062 26.94140625 C-16.58758378 28.9786285 -19.28892828 30.99468083 -22 33 C-22.90782227 33.67426025 -23.81564453 34.34852051 -24.75097656 35.04321289 C-26.06340332 35.99442017 -26.06340332 35.99442017 -27.40234375 36.96484375 C-28.57204712 37.81743774 -28.57204712 37.81743774 -29.76538086 38.68725586 C-33.49089486 40.87583761 -35.77673639 40.80096379 -40 40 C-42.5 38.5 -42.5 38.5 -44 36 C-44.77403846 30.58173077 -44.77403846 30.58173077 -44 28 C-39.71588419 22.89608425 -34.10604256 19.11660714 -28.8125 15.125 C-27.91724609 14.44308594 -27.02199219 13.76117188 -26.09960938 13.05859375 C-23.41241622 11.0213715 -20.71107172 9.00531917 -18 7 C-16.6382666 5.98860962 -16.6382666 5.98860962 -15.24902344 4.95678711 C-13.93659668 4.00557983 -13.93659668 4.00557983 -12.59765625 3.03515625 C-11.42795288 2.18256226 -11.42795288 2.18256226 -10.23461914 1.31274414 C-6.50910514 -0.87583761 -4.22326361 -0.80096379 0 0 Z " fill="#433B2D" transform="translate(356,176)"/>
<path d="M0 0 C2.5 1.5 2.5 1.5 4 4 C4.87028273 10.45693637 3.52808699 13.5235907 -0.37011719 18.64892578 C-0.99047852 19.42478027 -1.61083984 20.20063477 -2.25 21 C-2.8780957 21.81581543 -3.50619141 22.63163086 -4.15332031 23.47216797 C-5.45071364 25.15708164 -6.75513834 26.8366036 -8.06640625 28.51074219 C-9.92381949 30.90192721 -11.73568499 33.31995638 -13.53125 35.7578125 C-14.07491211 36.49515625 -14.61857422 37.2325 -15.17871094 37.9921875 C-16.20863164 39.39016563 -17.23795043 40.78858744 -18.26660156 42.1875 C-21.77426174 46.88713087 -21.77426174 46.88713087 -24 48 C-31.0521327 48.56872038 -31.0521327 48.56872038 -34.5 46.5 C-36.60272988 42.99545019 -36.76350686 39.9300152 -36 36 C-34.29182064 32.69929926 -32.06577208 29.89621885 -29.75 27 C-29.1219043 26.18418457 -28.49380859 25.36836914 -27.84667969 24.52783203 C-26.54928636 22.84291836 -25.24486166 21.1633964 -23.93359375 19.48925781 C-22.07618051 17.09807279 -20.26431501 14.68004362 -18.46875 12.2421875 C-17.92508789 11.50484375 -17.38142578 10.7675 -16.82128906 10.0078125 C-15.79136836 8.60983437 -14.76204957 7.21141256 -13.73339844 5.8125 C-9.64241904 0.33132676 -6.89051477 -0.93961565 0 0 Z " fill="#433B2E" transform="translate(324,136)"/>
<path d="M0 0 C0.87269531 -0.0038269 1.74539062 -0.00765381 2.64453125 -0.01159668 C4.48699092 -0.0143149 6.32948924 -0.00695994 8.171875 0.00976562 C10.99045934 0.03117752 13.80649485 0.00996199 16.625 -0.015625 C18.41667229 -0.01298171 20.20834299 -0.00785669 22 0 C22.84175781 -0.00809692 23.68351562 -0.01619385 24.55078125 -0.02453613 C30.38715618 0.06889601 30.38715618 0.06889601 33.52929688 2.43945312 C35.12144695 4.7039853 35.542797 5.7922417 35.5 8.53125 C35.5103125 9.19125 35.520625 9.85125 35.53125 10.53125 C34.72028534 13.58429343 33.52864929 14.62133873 31 16.53125 C28.00404386 17.14305158 25.04979255 17.11562647 22 17.09765625 C21.12730469 17.10385483 20.25460938 17.11005341 19.35546875 17.11643982 C17.51303217 17.12353388 15.67053143 17.12037116 13.828125 17.10766602 C11.0092176 17.09379536 8.19362724 17.12787952 5.375 17.16601562 C3.58333252 17.16696681 1.79166089 17.16510805 0 17.16015625 C-0.84175781 17.17341446 -1.68351562 17.18667267 -2.55078125 17.20033264 C-6.69926736 17.13431905 -8.3766737 17.10173064 -11.53125 14.21459961 C-13.46065129 10.68965785 -13.57618869 8.49254723 -13 4.53125 C-9.61033785 -0.5036604 -5.54511027 -0.05333878 0 0 Z " fill="#433C2E" transform="translate(61,151.46875)"/>
<path d="M0 0 C1.27362648 -0.00361794 1.27362648 -0.00361794 2.57298279 -0.00730896 C4.36242356 -0.00633215 6.15189516 0.0070219 7.94116211 0.03198242 C10.67861525 0.06634376 13.41284778 0.05262181 16.15039062 0.03320312 C17.8919408 0.04010057 19.63348267 0.04977204 21.375 0.0625 C22.19174698 0.05754013 23.00849396 0.05258026 23.84999084 0.04747009 C27.51388556 0.12337935 29.67563123 0.29129983 32.63891602 2.53710938 C35.12304739 6.04296304 34.52296033 8.40930714 34.12109375 12.62890625 C32.12109375 15.62890625 32.12109375 15.62890625 29.12109375 16.62890625 C23.72747565 16.90634851 18.33416707 16.94232259 12.93408203 16.97900391 C11.1455383 16.99557352 9.35706106 17.02287704 7.56884766 17.06103516 C4.98435277 17.11586211 2.40140465 17.13768319 -0.18359375 17.15234375 C-0.97957977 17.17501312 -1.7755658 17.1976825 -2.59567261 17.22103882 C-6.84011639 17.20492536 -8.4170992 16.98939045 -11.88330078 14.28369141 C-13.87890625 11.62890625 -13.87890625 11.62890625 -14.50390625 8.62890625 C-12.82845023 0.58671734 -6.99654573 -0.11385673 0 0 Z " fill="#443C2E" transform="translate(61.87890625,183.37109375)"/>
<path d="M0 0 C-0.5259375 0.99 -0.5259375 0.99 -1.0625 2 C-2.36113827 6.15564248 -1.90836205 8.73768574 -1 13 C3.21084037 15.80722691 5.11554218 14.94537893 10 14 C10.33 13.34 10.66 12.68 11 12 C11.66 12 12.32 12 13 12 C13.37497746 16.68721819 13.48459497 20.04875802 11.3125 24.3125 C7.7551333 28.44673697 4.54676857 31.58789927 -1.05078125 32.23828125 C-6.58896758 32.42001793 -9.64755155 31.74513006 -14 28 C-18.3022759 23.23261319 -19.36282503 19.56252705 -19.28125 13.28125 C-18.69180611 8.50020514 -15.85179203 5.75038822 -12.375 2.6875 C-7.99817258 -0.42235106 -5.28571974 -0.08525354 0 0 Z " fill="#F7C138" transform="translate(427,320)"/>
<path d="M0 0 C1.61572266 2.17724609 1.61572266 2.17724609 3.1640625 5.0234375 C4.01097656 6.55484375 4.01097656 6.55484375 4.875 8.1171875 C5.74125 9.72980469 5.74125 9.72980469 6.625 11.375 C7.783211 13.48733195 8.94203797 15.59932631 10.1015625 17.7109375 C10.61025879 18.65243652 11.11895508 19.59393555 11.64306641 20.56396484 C13.0346309 23.13828473 13.0346309 23.13828473 15 26 C15.33521079 29.01689707 15.55946915 31.09775379 15 34 C12.9375 36.5625 12.9375 36.5625 10 38 C6.4375 38.0625 6.4375 38.0625 3 37 C-1.60170262 31.88630868 -4.88099585 25.82969337 -8.375 19.9375 C-9.04144531 18.84888672 -9.70789063 17.76027344 -10.39453125 16.63867188 C-11.01457031 15.59130859 -11.63460937 14.54394531 -12.2734375 13.46484375 C-12.84497559 12.512146 -13.41651367 11.55944824 -14.00537109 10.57788086 C-15 8 -15 8 -14.296875 5.75341797 C-12.66105369 3.54173336 -11.03120557 2.51051336 -8.625 1.1875 C-7.85414063 0.74792969 -7.08328125 0.30835938 -6.2890625 -0.14453125 C-3.54550152 -1.16985523 -2.67784125 -1.13050974 0 0 Z " fill="#F9C238" transform="translate(191,363)"/>
<path d="M0 0 C1.051875 -0.00515625 2.10375 -0.0103125 3.1875 -0.015625 C4.280625 -0.00015625 5.37375 0.0153125 6.5 0.03125 C8.1396875 0.00804688 8.1396875 0.00804688 9.8125 -0.015625 C10.864375 -0.01046875 11.91625 -0.0053125 13 0 C14.43859375 0.00676758 14.43859375 0.00676758 15.90625 0.01367188 C19.21298564 0.673525 20.40908706 1.94238555 22.5 4.53125 C23.03125 6.53125 23.03125 6.53125 23 8.53125 C23.0103125 9.19125 23.020625 9.85125 23.03125 10.53125 C22.2561666 13.44921104 20.80895833 14.6243588 18.5 16.53125 C15.90625 17.04882812 15.90625 17.04882812 13 17.0625 C11.948125 17.06765625 10.89625 17.0728125 9.8125 17.078125 C8.719375 17.06265625 7.62625 17.0471875 6.5 17.03125 C4.8603125 17.05445313 4.8603125 17.05445313 3.1875 17.078125 C2.135625 17.07296875 1.08375 17.0678125 0 17.0625 C-0.9590625 17.05798828 -1.918125 17.05347656 -2.90625 17.04882812 C-6.21298564 16.388975 -7.40908706 15.12011445 -9.5 12.53125 C-10.03125 10.53125 -10.03125 10.53125 -10 8.53125 C-10.01546875 7.54125 -10.01546875 7.54125 -10.03125 6.53125 C-8.65240655 1.34030994 -4.94094259 0.02324368 0 0 Z " fill="#433B2D" transform="translate(73.5,119.46875)"/>
<path d="M0 0 C3.09375 1.464375 6.1875 2.92875 9.375 4.4375 C10.34872559 4.89825928 11.32245117 5.35901855 12.32568359 5.83374023 C13.09219238 6.19669189 13.85870117 6.55964355 14.6484375 6.93359375 C15.43395996 7.30540771 16.21948242 7.67722168 17.02880859 8.06030273 C18.358629 8.69424858 19.68233248 9.34116624 21 10 C21 10.66 21 11.32 21 12 C17.68910974 13.66987892 14.37602825 15.33536259 11.0625 17 C10.11697266 17.47695312 9.17144531 17.95390625 8.19726562 18.4453125 C7.29814453 18.89648438 6.39902344 19.34765625 5.47265625 19.8125 C4.64000244 20.23144531 3.80734863 20.65039062 2.94946289 21.08203125 C1 22 1 22 0 22 C0 14.74 0 7.48 0 0 Z " fill="#FBCA52" transform="translate(208,69)"/>
<path d="M0 0 C2.65727063 1.7581941 3.7442616 3.62323732 5.328125 6.375 C5.84890625 7.261875 6.3696875 8.14875 6.90625 9.0625 C8.078125 11.375 8.078125 11.375 8.078125 13.375 C2.78779194 16.90188871 -0.5335623 18.31753794 -6.921875 17.375 C-9.86815465 14.8706623 -10.73334955 13.18051784 -11.609375 9.4375 C-10.58914696 4.89284781 -7.64321277 2.95973008 -3.921875 0.375 C-1.921875 -0.625 -1.921875 -0.625 0 0 Z " fill="#F7C138" transform="translate(98.921875,349.625)"/>
<path d="M0 0 C5.84337138 1.25215101 8.73102506 4.21899104 12 9 C12.33 9.99 12.66 10.98 13 12 C12.34 12 11.68 12 11 12 C10.67 12.99 10.34 13.98 10 15 C2.82167043 16.31602709 2.82167043 16.31602709 -0.4375 15.0625 C-2.77379235 11.9785941 -3.22030136 8.77449667 -3 5 C-1.5625 2 -1.5625 2 0 0 Z " fill="#7F7054" transform="translate(427,320)"/>
</svg>
